<svg xmlns="http://www.w3.org/2000/svg" xmlns:xlink="http://www.w3.org/1999/xlink" width="51.12708" height="60" viewBox="0 0 51.12708 60">
  <defs>
    <linearGradient id="a" data-name="New Gradient Swatch" y1="30.00001" x2="51.12708" y2="30.00001" gradientUnits="userSpaceOnUse">
      <stop offset="0" stop-color="#f50"/>
      <stop offset="0.40571" stop-color="#f50"/>
      <stop offset="0.64209" stop-color="#ff2000"/>
      <stop offset="1" stop-color="#ff2000"/>
    </linearGradient>
    <linearGradient id="b" data-name="BraveGradient" x1="-42.03032" y1="5.42174" x2="-41.95961" y2="5.42174" gradientUnits="userSpaceOnUse">
      <stop offset="0" stop-color="#f50"/>
      <stop offset="1" stop-color="#ff2000"/>
    </linearGradient>
  </defs>
  <title>logo</title>
  <g>
    <path d="M49.28612,14.42556l1.34294-2.99563a.78587.78587,0,0,0-.15793-.87364L46.91165,6.95156a5.66216,5.66216,0,0,0-5.923-1.37767l-.95084.33453L34.69938.07317,25.57557,0h-.02406L16.4277.07317,11.08923,5.90842l-.95083-.33453a5.66215,5.66215,0,0,0-5.923,1.37767L.65594,10.55629a.78588.78588,0,0,0-.15792.87364L1.841,14.42556,0,19.44723,1.19182,23.974,6.61841,44.61019a10.51154,10.51154,0,0,0,4.06794,5.88932S17.275,55.14681,23.77744,59.368a3.29808,3.29808,0,0,0,1.7861.632,3.29811,3.29811,0,0,0,1.7861-.632c6.50241-4.22121,13.09108-8.86851,13.09108-8.86851a10.51145,10.51145,0,0,0,4.06794-5.88932L49.93526,23.974l1.19182-4.52682Z" style="fill: url(#a)"/>
    <path d="M12.64986,9.69623a.0763.0763,0,0,0,.04482,0c.0032-.00407.45274.0784.999.18324l3.44589.66144c.54624.10487,1.22473.23438,1.50777.28785a3.9239,3.9239,0,0,0,1.47662-.21469l2.7205-.882c.52912-.17155,1.40532-.41479,1.94715-.54054a3.97736,3.97736,0,0,1,.772-.04645,3.9773,3.9773,0,0,1,.77194.04645c.54184.12575,1.418.369,1.94715.54054l2.72051.882a3.92388,3.92388,0,0,0,1.47662.21469c.283-.05347.96153-.183,1.50777-.28785l3.44589-.66144c.54624-.10484.99578-.18731.999-.18324a.0763.0763,0,0,0,.04482,0c4.80036-4.37765,8.43443-2.74469,8.43443-2.74469a5.66218,5.66218,0,0,0-5.923-1.37767l-.95084.33454L34.69938.07315,25.57557,0h-.02406L16.4277.07315,11.08923,5.90841l-.95083-.33454a5.66217,5.66217,0,0,0-5.923,1.37767S7.84949,5.31858,12.64986,9.69623Z" style="fill: url(#b)"/>
    <path d="M33.27609,40.80767l-2.97881-1.55205c-.49328-.257-1.31714-.64189-1.83079-.85528l-1.62-.673a7.74062,7.74062,0,0,0-1.06638-.38805l-.21656-.00016-.21657.00016a7.7412,7.7412,0,0,0-1.06637.38805l-1.62.673c-.51366.21339-1.33751.59827-1.83079.85528L17.851,40.80767a.56746.56746,0,0,0-.07092,1.05089l2.58461,1.82629c.45425.321,1.17034.88106,1.59129,1.24462l.7269.62776c.42095.36357,1.10633.96243,1.523,1.33086l.68947.60954a.96235.96235,0,0,0,1.33636,0l.68947-.60954c.4167-.36843,1.10208-.96729,1.523-1.33086l.72689-.62776c.421-.36356,1.13705-.92362,1.5913-1.24462L33.347,41.85856A.56746.56746,0,0,0,33.27609,40.80767Z" style="fill: #fff"/>
    <path d="M45.476,18.72331a13.226,13.226,0,0,0-.79493-1.32281l-1.66829-2.46877c-.31145-.46085-.84991-1.19382-1.19658-1.62877L39.5659,10.47972a7.88163,7.88163,0,0,0-.66933-.78349.07632.07632,0,0,1-.04482,0c-.0032-.00407-.45274.0784-.999.18324l-3.44588.66144c-.54624.10487-1.22474.23438-1.50778.28785a3.92393,3.92393,0,0,1-1.47662-.21469L28.702,9.732c-.52912-.17155-1.40531-.41479-1.94715-.54054a3.97736,3.97736,0,0,0-.772-.04645,3.9773,3.9773,0,0,0-.77194.04645c-.54184.12575-1.418.369-1.94715.54054l-2.7205.882a3.92393,3.92393,0,0,1-1.47662.21469c-.283-.05347-.96154-.183-1.50778-.28785L14.113,9.87945c-.54624-.10484-.99577-.18731-.999-.18324a.07632.07632,0,0,1-.04482,0,7.88163,7.88163,0,0,0-.66933.78349L10.14961,13.303c-.34667.43495-.88513,1.16792-1.19658,1.62877L7.28474,17.4005a13.226,13.226,0,0,0-.79493,1.32281,6.02176,6.02176,0,0,0-.228,1.56337l.08459.2687a3.99345,3.99345,0,0,0,.15488.50744c.34831.43367.94531,1.11977,1.32664,1.52472l5.89123,6.2559a1.68972,1.68972,0,0,1,.29973,1.66782l-.96445,2.28256a2.96564,2.96564,0,0,0-.0449,1.88086l.19512.53113A5.10887,5.10887,0,0,0,14.77456,37.406l.92591.75383a1.74906,1.74906,0,0,0,1.69715.20335l3.288-1.5673a8.359,8.359,0,0,0,1.66372-1.11265l2.63427-2.377a1.0539,1.0539,0,0,0,.05324-1.51337l-5.94178-4.00424a1.15043,1.15043,0,0,1-.36367-1.458l2.30467-4.3323a2.25141,2.25141,0,0,0,.11188-1.72137A2.62786,2.62786,0,0,0,19.8388,19.091L12.616,16.36305c-.52034-.19653-.493-.40025.06071-.45272l4.24087-.40185a6.54512,6.54512,0,0,1,1.981.17612l3.69386,1.02962a1.13194,1.13194,0,0,1,.792,1.2663l-1.45052,7.92122a4.09589,4.09589,0,0,0-.07266,1.337c.06022.1882.55458.4371,1.09857.5531l2.24864.47951a3.78354,3.78354,0,0,0,1.54891,0l2.24864-.47951c.544-.116,1.03835-.3649,1.09857-.5531a4.09589,4.09589,0,0,0-.07266-1.337l-1.45052-7.92122a1.13194,1.13194,0,0,1,.792-1.2663l3.69386-1.02962a6.54512,6.54512,0,0,1,1.981-.17612l4.24087.40185c.55374.05247.581.25619.06071.45272L32.127,19.091a2.62781,2.62781,0,0,0-1.30917,1.18585,2.25141,2.25141,0,0,0,.11188,1.72137l2.30467,4.3323a1.15043,1.15043,0,0,1-.36367,1.458l-5.94178,4.00424a1.0539,1.0539,0,0,0,.05324,1.51337l2.63427,2.377a8.359,8.359,0,0,0,1.66372,1.11265l3.288,1.5673a1.74906,1.74906,0,0,0,1.69715-.20335l.92591-.75383a5.10887,5.10887,0,0,0,1.56994-2.20014l.19512-.53113a2.96564,2.96564,0,0,0-.0449-1.88086l-.96445-2.28256a1.68972,1.68972,0,0,1,.29973-1.66782l5.89123-6.2559c.38133-.40495.97833-1.091,1.32663-1.52472a3.99367,3.99367,0,0,0,.15489-.50744l.08459-.2687A6.02176,6.02176,0,0,0,45.476,18.72331Z" style="fill: #fff"/>
  </g>
</svg>
